{"title":"51.2011.DVDRip.x264.AC3.RoSub-Psycho","uid":6710216,"size":783663754,"categoryP":"video","categoryS":"movies","magnet":"?xt=urn:btih:604a369e9237f89d47dfd5cc0bceeba6192ea131&amp;dn=51.2011.DVDRip.x264.AC3.RoSub-Psycho&amp;tr=udp%3A%2F%2Ftracker.openbittorrent.com%3A80&amp;tr=udp%3A%2F%2Fopen.demonii.com%3A1337&amp;tr=udp%3A%2F%2Ftracker.coppersurfer.tk%3A6969&amp;tr=udp%3A%2F%2Fexodus.desync.com%3A6969","seeders":0,"leechers":0,"uploader":"Francisco1206","files":-1,"time":1317324217,"description":"51 chronicles what happens after political pressure from the American public forces the Air Force to provide a few well-known reporters with limited access to the most secretive base on the planet: Area 51. When one of the base's hidden 'long term visitors' exploits this unprecedented visit as a chance to liberate himself and his fellow alien captives, Area 51 turns from a secure government base to a horrifying destination of terror.\n\n51 chronicles what happens after political pressure from the American public forces the Air Force to provide a few well-known reporters with limited access to the most secretive base on the planet: Area 51. When one of the base's hidden 'long term visitors' exploits this unprecedented visit as a chance to liberate himself and his fellow alien captives, Area 51 turns from a secure government base to a horrifying destination of terror.\n\nIMDB rating: 3.6/10 (from 577 users)\n\nCAST: \nJason London............Aaron 'Shoes' Schumacher\nRachel Miner............Sgt. Hannah\nBeau Brasseaux..........Airmen (as Beau Brasso)\nBruce Boxleitner........Col. Martin\nVanessa Branch..........Claire\nAndrew Sensenig.........Dr. Keane\nJohn Shea...............Sam Whitaker\nJillian Batherson.......Gomez\nLena Clark..............Mindy\nDamon Lipari............Kevin\nTammi Arender...........Sharon Solomon\nBilly Slaughter.........Dr. Haven\nJ.D. Evermore...........Smith\nLuke Sexton.............Lt. Walters\nNedal Yousef............Airman Baxter\n\nFormat                           : Matroska\nFile size                        : 739 MiB\nDuration                         : 1h 29mn\nOverall bit rate                 : 1 153 Kbps\nEncoded date                     : UTC 2011-09-29 17:12:33\nWriting application              : mkvmerge v4.9.1 ('Ich will') creado el Jul 11 2011 23:53:15\nWriting library                  : libebml v1.2.1 + libmatroska v1.1.1\n\nVideo\nID                               : 1\nFormat                           : AVC\nFormat/Info                      : Advanced Video Codec\nFormat profile                   : &lt;a class=&quot;__cf_email__&quot; href=&quot;/cdn-cgi/l/email-protection&quot; data-cfemail=&quot;feb39f9790beb2cdd0ce&quot;&gt;[email&amp;#160;protected]&lt;/a&gt;&lt;script data-cfhash='f9e31' type=&quot;text/javascript&quot;&gt;\n/* &lt;![CDATA[ */!function(){try{var t=&quot;currentScript&quot;in document?document.currentScript:function(){for(var t=document.getElementsByTagName(&quot;script&quot;),e=t.length;e--;)if(t[e].getAttribute(&quot;data-cfhash&quot;))return t[e]}();if(t&amp;&amp;t.previousSibling){var e,r,n,i,c=t.previousSibling,a=c.getAttribute(&quot;data-cfemail&quot;);if(a){for(e=&quot;&quot;,r=parseInt(a.substr(0,2),16),n=2;a.length-n;n+=2)i=parseInt(a.substr(n,2),16)^r,e+=String.fromCharCode(i);e=document.createTextNode(e),c.parentNode.replaceChild(e,c)}t.parentNode.removeChild(t);}}catch(u){}}()/* ]]&gt; */&lt;/script&gt;\nFormat settings, CABAC           : Yes\nFormat settings, ReFrames        : 4 frames\nMuxing mode                      : Container profile=&lt;a class=&quot;__cf_email__&quot; href=&quot;/cdn-cgi/l/email-protection&quot; data-cfemail=&quot;3b6e555055544c557b08150b&quot;&gt;[email&amp;#160;protected]&lt;/a&gt;&lt;script data-cfhash='f9e31' type=&quot;text/javascript&quot;&gt;\n/* &lt;![CDATA[ */!function(){try{var t=&quot;currentScript&quot;in document?document.currentScript:function(){for(var t=document.getElementsByTagName(&quot;script&quot;),e=t.length;e--;)if(t[e].getAttribute(&quot;data-cfhash&quot;))return t[e]}();if(t&amp;&amp;t.previousSibling){var e,r,n,i,c=t.previousSibling,a=c.getAttribute(&quot;data-cfemail&quot;);if(a){for(e=&quot;&quot;,r=parseInt(a.substr(0,2),16),n=2;a.length-n;n+=2)i=parseInt(a.substr(n,2),16)^r,e+=String.fromCharCode(i);e=document.createTextNode(e),c.parentNode.replaceChild(e,c)}t.parentNode.removeChild(t);}}catch(u){}}()/* ]]&gt; */&lt;/script&gt;\nCodec ID                         : V_MPEG4/ISO/AVC\nDuration                         : 1h 29mn\nBit rate                         : 938 Kbps\nNominal bit rate                 : 960 Kbps\nWidth                            : 624 pixels\nHeight                           : 352 pixels\nDisplay aspect ratio             : 16:9\nFrame rate mode                  : Variable\nFrame rate                       : 23.976 fps\nResolution                       : 8 bits\nColorimetry                      : 4:2:0\nScan type                        : Progressive\nBits/(Pixel*Frame)               : 0.178\nStream size                      : 601 MiB (81%)\nWriting library                  : x264 core 112\n\n\nAudio\nID                               : 2\nFormat                           : AC-3\nFormat/Info                      : Audio Coding 3\nCodec ID                         : A_AC3\nDuration                         : 1h 29mn\nBit rate mode                    : Constant\nBit rate                         : 192 Kbps\nChannel(s)                       : 2 channels\nChannel positions                : Front: L R\nSampling rate                    : 48.0 KHz\nStream size                      : 123 MiB (17%)\n\nText (subtitles)\nID                               : 3\nFormat                           : UTF-8\nCodec ID                         : S_TEXT/UTF8\nCodec ID/Info                    : UTF-8 Plain Text\nLanguage                         : ROMANIAN\n\n\nRecommended player :VLC media player....http://www.videolan.org/vlc/\n\nSEED back for SPEED ","torrent":{"xt":"urn:btih:604a369e9237f89d47dfd5cc0bceeba6192ea131","amp;dn":"51.2011.DVDRip.x264.AC3.RoSub-Psycho","amp;tr":["udp%3A%2F%2Ftracker.openbittorrent.com%3A80","udp%3A%2F%2Fopen.demonii.com%3A1337","udp%3A%2F%2Ftracker.coppersurfer.tk%3A6969","udp%3A%2F%2Fexodus.desync.com%3A6969"],"infoHash":"604a369e9237f89d47dfd5cc0bceeba6192ea131","infoHashBuffer":{"type":"Buffer","data":[96,74,54,158,146,55,248,157,71,223,213,204,11,206,235,166,25,46,161,49]},"announce":[],"urlList":[]}}